<?xml version="1.0" encoding="UTF-8" standalone="no"?>
<!-- Generator: Adobe Illustrator 27.3.1, SVG Export Plug-In . SVG Version: 6.00 Build 0)  -->

<svg
   xmlns:dc="http://purl.org/dc/elements/1.1/"
   xmlns:cc="http://creativecommons.org/ns#"
   xmlns:rdf="http://www.w3.org/1999/02/22-rdf-syntax-ns#"
   xmlns:svg="http://www.w3.org/2000/svg"
   xmlns="http://www.w3.org/2000/svg"
   xmlns:xlink="http://www.w3.org/1999/xlink"
   xmlns:sodipodi="http://sodipodi.sourceforge.net/DTD/sodipodi-0.dtd"
   xmlns:inkscape="http://www.inkscape.org/namespaces/inkscape"
   version="1.1"
   id="Ebene_1"
   x="0px"
   y="0px"
   viewBox="0 0 32 32"
   xml:space="preserve"
   sodipodi:docname="pixelpart_node3d.svg"
   width="32"
   height="32"
   inkscape:version="0.92.5 (2060ec1f9f, 2020-04-08)"
   inkscape:export-filename="pixelpart_node3d.png"
   inkscape:export-xdpi="7.078341"
   inkscape:export-ydpi="7.078341"><metadata
   id="metadata21"><rdf:RDF><cc:Work
       rdf:about=""><dc:format>image/svg+xml</dc:format><dc:type
         rdf:resource="http://purl.org/dc/dcmitype/StillImage" /><dc:title></dc:title></cc:Work></rdf:RDF></metadata><defs
   id="defs19" /><sodipodi:namedview
   pagecolor="#ffffff"
   bordercolor="#666666"
   borderopacity="1"
   objecttolerance="10"
   gridtolerance="10"
   guidetolerance="10"
   inkscape:pageopacity="0"
   inkscape:pageshadow="2"
   inkscape:window-width="1920"
   inkscape:window-height="1009"
   id="namedview17"
   showgrid="false"
   inkscape:zoom="5.8003072"
   inkscape:cx="-65.567433"
   inkscape:cy="30.95953"
   inkscape:window-x="0"
   inkscape:window-y="0"
   inkscape:window-maximized="1"
   inkscape:current-layer="g824" />
<style
   type="text/css"
   id="style2">
	.st0{clip-path:url(#SVGID_00000029762955764279976440000001782569530524252035_);fill:#1D1D1B;}
</style>
<g
   id="g14"
   transform="matrix(1.1461023,0,0,1.1461023,-16.038486,-664.83714)"
   style="fill:#8da5f3;fill-opacity:1"
   inkscape:export-xdpi="7.078341"
   inkscape:export-ydpi="7.078341">
	<defs
   id="defs5">
		<rect
   id="SVGID_1_"
   x="48.400002"
   y="40.099998"
   width="499.29999"
   height="567.79999" />
	</defs>
	<clipPath
   id="SVGID_00000114064358568021063300000006307914348703144854_">
		<use
   xlink:href="#SVGID_1_"
   style="overflow:visible"
   id="use7"
   x="0"
   y="0"
   width="100%"
   height="100%" />
	</clipPath>
	
	<g
   id="g824"
   transform="matrix(0.04864,0,0,0.04864,13.459579,578.28634)"><path
     inkscape:connector-curvature="0"
     id="path10"
     clip-path="url(#SVGID_00000114064358568021063300000006307914348703144854_)"
     d="m 415.6,408 h -48.7 v 199.9 l 48.7,-0.2 z m -173,-17.3 c 0,49.9 -39.5,59.2 -78.9,59.2 H 98.2 V 331.5 h 65.4 c 39.5,0 79,9.3 79,59.2 m 53,0 c 0,-46.2 -23.9,-102.8 -117.9,-102.8 H 48.4 V 607.7 H 98.3 V 493.5 h 79.5 c 93.9,0 117.8,-56.6 117.8,-102.8 m 119.7,-61.5 c 1.8,-24.7 6,-48.8 12.3,-72 l -32.4,32.4 -19.4,-19.4 C 370,298.7 367,328 367,357.7 v 1.5 h 48.7 V 333 h 0.3 c 0,-1.2 0.1,-2.5 0.1,-3.7 h -0.8 z m 59.1,-177.7 c -13.6,-8.9 -25.5,-20.3 -35,-33.4 -3.7,5.5 -7.3,11.1 -10.7,16.8 l 34.8,34.8 c 3.5,-6.2 7.1,-12.2 10.9,-18.2"
     style="fill:#fc7f7f;fill-opacity:1" /><path
     inkscape:connector-curvature="0"
     id="path12"
     clip-path="url(#SVGID_00000114064358568021063300000006307914348703144854_)"
     d="m 458.7,197 c -28.3,16.1 -51.8,39.6 -67.9,67.9 -16.1,-28.3 -39.6,-51.8 -67.9,-67.9 28.3,-16.1 51.8,-39.6 67.9,-67.9 16,28.2 39.6,51.8 67.9,67.9 m 88.9,23.5 v -47 C 474,173.5 414.2,113.7 414.2,40.1 h -47 c 0,73.6 -59.8,133.4 -133.4,133.4 v 47 c 73,0 132.5,59 133.4,131.8 v 7.2 h 46.7 v -5.6 h 0.3 c 0,-73.6 59.9,-133.4 133.4,-133.4"
     style="fill:#fc7f7f;fill-opacity:1" /></g>
</g>
</svg>